<?xml version="1.0" encoding="UTF-8" standalone="no"?> <!-- Created with Vectornator for iOS (http://vectornator.io/) --><!DOCTYPE svg PUBLIC "-//W3C//DTD SVG 1.1//EN" "http://www.w3.org/Graphics/SVG/1.1/DTD/svg11.dtd">
<svg height="100%" xmlns="http://www.w3.org/2000/svg" viewBox="0 0 1024 1024" width="100%" xmlns:vectornator="http://vectornator.io" xmlns:xlink="http://www.w3.org/1999/xlink" style="fill-rule:nonzero;clip-rule:evenodd;stroke-linecap:round;stroke-linejoin:round;" version="1.1" xml:space="preserve">
<metadata>
<vectornator:setting key="WDIsolateActiveLayer" value="false"/>
<vectornator:setting key="WDRulersVisible" value="true"/>
<vectornator:setting key="WDCMYKEnabledKey" value="false"/>
<vectornator:setting value="Pixels" key="WDUnits"/>
<vectornator:setting key="WDDynamicGuides" value="false"/>
<vectornator:setting value="true" key="VNSnapToGuides"/>
<vectornator:setting value="false" key="WDOutlineMode"/>
<vectornator:setting value="true" key="WDGuidesVisible"/>
<vectornator:setting value="true" key="VNDimensionsVisible"/>
<vectornator:setting key="IsTimeLapseWatermarkDisabled" value="false"/>
<vectornator:setting value="false" key="WDSnapToEdges"/>
<vectornator:setting key="UndoHistoryDisabled" value="true"/>
<vectornator:setting value="false" key="WDDisplayWhiteBackground"/>
<vectornator:setting value="false" key="WDSnapToPoints"/>
<vectornator:setting value="false" key="WDSnapToGrid"/>
</metadata>
<defs/>
<g id="Layer 1" vectornator:layerName="Layer 1">
<path fill="#7fc2c6" d="M0+160L1024+160L1024+1024L0+1024L0+160Z" opacity="1"/>
<path fill="#7fc2c6" d="M3.37113e-06+0L238.14+0L238.14+160L3.37113e-06+160L3.37113e-06+0Z" opacity="1"/>
<path opacity="1" d="M392.93+0L631.07+0L631.07+160L392.93+160L392.93+0Z" fill="#7fc2c6"/>
<path fill="#7fc2c6" d="M785.86+0L1024+0L1024+160L785.86+160L785.86+0Z" opacity="1"/>
<path fill="#ffffff" opacity="1" d="M551.895+955.179L559.279+946.758L559.15+893.901L559.15+841.043L509.92+817.205L460.819+793.368L460.819+782.485L460.819+771.732L478.309+771.732L495.798+771.732L495.798+784.04L495.798+796.347L501.887+796.347C509.79+796.347+549.563+793.886+555.134+792.979L559.279+792.331L559.279+763.7L559.279+735.199L551.376+726.259L543.474+717.32L479.216+717.32L414.958+717.32L406.148+726L397.338+734.68L397.338+783.392L397.338+831.974L445.662+855.294L493.855+878.743L494.244+893.901L494.632+909.058L477.661+909.058L460.819+909.058L460.819+891.569L460.819+874.079L454.73+874.079C446.828+874.079+407.055+876.54+401.614+877.447L397.338+878.095L397.338+913.204L397.338+948.313L405.5+955.827L413.532+963.341L479.086+963.47L544.51+963.47L551.895+955.179ZM669.399+871.488L669.399+779.506L690.127+779.506L710.856+779.506L710.856+748.413L710.856+717.32L638.306+717.32L565.757+717.32L565.757+748.413L565.757+779.506L585.837+779.506L605.918+779.506L605.918+871.488L605.918+963.47L637.659+963.47L669.399+963.47L669.399+871.488ZM842.999+932.378L842.999+901.285L811.907+901.285L780.814+901.285L780.814+809.303L780.814+717.32L749.722+717.32L718.629+717.32L718.629+840.395L718.629+963.47L780.814+963.47L842.999+963.47L842.999+932.378ZM990.689+932.378L990.689+901.285L952.471+901.285L914.253+901.285L914.253+885.091L914.253+868.897L949.88+868.897L985.507+868.897L985.507+839.1L985.507+809.303L949.88+809.303L914.253+809.303L914.253+793.756L914.253+778.21L953.119+778.21L991.985+778.21L991.985+747.765L991.985+717.32L922.027+717.32L852.068+717.32L852.068+840.395L852.068+963.47L921.379+963.47L990.689+963.47L990.689+932.378ZM185.39+955.179L192.645+947.017L192.645+903.358L192.645+859.828L160.905+859.828L129.164+859.828L129.164+883.795L129.164+907.763L111.675+907.763L94.1853+907.763L94.1853+840.395L94.1853+773.028L111.675+773.028L129.164+773.028L129.164+790.906L129.164+808.784L136.679+808.266C140.695+808.007+154.557+807.1+167.382+806.323L190.702+804.768L191.091+769.789L191.35+734.939L182.67+726.13L173.99+717.32L111.804+717.32L49.6192+717.32L40.8096+726L32+734.68L32+840.914L32+947.147L40.0323+955.308L48.0645+963.47L113.1+963.47L178.135+963.47L185.39+955.179ZM247.462+717.32L223.333+838.047C209.989+904.508+199.123+959.989+199.123+961.284C199.123+963.357+201.601+963.47+233.211+963.47L267.259+963.47L269.729+943.39L272.077+923.309L292.522+923.309L312.886+923.309L313.656+926.953C314.433+930.451+318.311+960.474+318.311+962.418C318.311+962.936+333.728+963.47+352.643+963.47L387.096+963.47L386.205+958.693C385.687+955.972+374.659+900.767+361.833+835.861L338.271+717.968L292.927+717.563L247.462+717.32ZM292.806+770.963C292.935+770.704+295.907+790.793+299.405+815.537C302.773+840.282+305.858+861.788+306.247+863.472C306.894+866.322+306.773+866.306+293.17+866.306C283.065+866.306+279.446+865.933+279.446+864.767C279.446+862.047+292.417+771.352+292.806+770.963Z"/>
<g opacity="1">
<path fill="#ffffff" d="M320+322.02L320+558.328C320+583.436+339.2+602.636+364.308+602.636L659.692+602.636C684.8+602.636+704+583.436+704+558.328L704+322.02C704+296.913+684.8+277.713+659.692+277.713L364.308+277.713C339.2+277.713+320+296.913+320+322.02ZM349.538+351.559L674.462+351.559L674.462+558.328C674.462+567.19+668.554+573.097+659.692+573.097L364.308+573.097C355.446+573.097+349.538+567.19+349.538+558.328L349.538+351.559Z" opacity="1"/>
<path stroke-linejoin="miter" stroke-width="2" d="M438.154+410.636L393.846+462.328L438.154+514.02M585.846+514.02L630.154+462.328L585.846+410.636" fill="#ffffff" opacity="1" stroke-linecap="butt" stroke="#ffffff"/>
<path fill="#ffffff" d="M556.308+381.097L526.769+381.097L467.692+543.559L497.231+543.559L556.308+381.097Z" opacity="1"/>
</g>
</g>
</svg>
